<svg width="10" height="10" viewBox="0 0 10 10" fill="none" xmlns="http://www.w3.org/2000/svg">
<path fill-rule="evenodd" clip-rule="evenodd" d="M0.625 5C0.625 4.91712 0.657924 4.83763 0.716529 4.77903C0.775134 4.72042 0.85462 4.6875 0.9375 4.6875H8.30813L6.34125 2.72125C6.28257 2.66257 6.24961 2.58298 6.24961 2.5C6.24961 2.41701 6.28257 2.33743 6.34125 2.27875C6.39993 2.22007 6.47952 2.1871 6.5625 2.1871C6.64548 2.1871 6.72507 2.22007 6.78375 2.27875L9.28375 4.77875C9.31285 4.80778 9.33594 4.84226 9.3517 4.88023C9.36745 4.91819 9.37556 4.95889 9.37556 5C9.37556 5.0411 9.36745 5.0818 9.3517 5.11977C9.33594 5.15773 9.31285 5.19222 9.28375 5.22125L6.78375 7.72125C6.72507 7.77993 6.64548 7.81289 6.5625 7.81289C6.47952 7.81289 6.39993 7.77993 6.34125 7.72125C6.28257 7.66257 6.24961 7.58298 6.24961 7.5C6.24961 7.41701 6.28257 7.33743 6.34125 7.27875L8.30813 5.3125H0.9375C0.85462 5.3125 0.775134 5.27957 0.716529 5.22097C0.657924 5.16236 0.625 5.08288 0.625 5Z" fill="white"/>
</svg>
