<svg width="34" height="34" viewBox="0 0 34 34" fill="none" xmlns="http://www.w3.org/2000/svg">
<path fill-rule="evenodd" clip-rule="evenodd" d="M10.4678 1.49489C12.1126 1.41917 12.637 1.40234 16.8269 1.40234C21.0169 1.40234 21.5413 1.42057 23.1847 1.49489C24.8282 1.56921 25.95 1.83143 26.9315 2.21144C27.9594 2.59986 28.8919 3.20704 29.6631 3.9923C30.4484 4.76213 31.0542 5.69322 31.4412 6.72247C31.8226 7.70405 32.0834 8.82584 32.1591 10.4665C32.2348 12.1141 32.2517 12.6386 32.2517 16.8271C32.2517 21.017 32.2334 21.5414 32.1591 23.1863C32.0848 24.8269 31.8226 25.9487 31.4412 26.9303C31.0541 27.9596 30.4474 28.8923 29.6631 29.6632C28.8919 30.4485 27.9594 31.0543 26.9315 31.4413C25.95 31.8227 24.8282 32.0835 23.1875 32.1593C21.5413 32.235 21.0169 32.2518 16.8269 32.2518C12.637 32.2518 12.1126 32.2336 10.4678 32.1593C8.82712 32.0849 7.70533 31.8227 6.72375 31.4413C5.69439 31.0542 4.76176 30.4475 3.99077 29.6632C3.20605 28.893 2.59878 27.9608 2.21132 26.9317C1.83131 25.9501 1.57049 24.8283 1.49477 23.1877C1.41905 21.54 1.40222 21.0156 1.40222 16.8271C1.40222 12.6372 1.42045 12.1127 1.49477 10.4693C1.56909 8.82584 1.83131 7.70405 2.21132 6.72247C2.59935 5.69334 3.20708 4.76117 3.99217 3.99089C4.76206 3.20634 5.69376 2.59908 6.72235 2.21144C7.70392 1.83143 8.82572 1.57061 10.4664 1.49489H10.4678ZM23.0599 4.27134C21.4333 4.19702 20.9454 4.1816 16.8269 4.1816C12.7085 4.1816 12.2206 4.19702 10.594 4.27134C9.08934 4.34005 8.27324 4.59106 7.72916 4.80279C7.00981 5.08324 6.49519 5.41558 5.95532 5.95544C5.44356 6.45331 5.04972 7.05941 4.80267 7.72929C4.59093 8.27336 4.33993 9.08947 4.27122 10.5941C4.1969 12.2207 4.18148 12.7087 4.18148 16.8271C4.18148 20.9455 4.1969 21.4335 4.27122 23.0601C4.33993 24.5647 4.59093 25.3808 4.80267 25.9249C5.04947 26.5937 5.4435 27.2009 5.95532 27.6987C6.45312 28.2105 7.06029 28.6046 7.72916 28.8513C8.27324 29.0631 9.08934 29.3141 10.594 29.3828C12.2206 29.4571 12.7071 29.4725 16.8269 29.4725C20.9468 29.4725 21.4333 29.4571 23.0599 29.3828C24.5646 29.3141 25.3807 29.0631 25.9247 28.8513C26.6441 28.5709 27.1587 28.2386 27.6986 27.6987C28.2104 27.2009 28.6044 26.5937 28.8512 25.9249C29.063 25.3808 29.314 24.5647 29.3827 23.0601C29.457 21.4335 29.4724 20.9455 29.4724 16.8271C29.4724 12.7087 29.457 12.2207 29.3827 10.5941C29.314 9.08947 29.063 8.27336 28.8512 7.72929C28.5708 7.00993 28.2384 6.49531 27.6986 5.95544C27.2007 5.44372 26.5946 5.04989 25.9247 4.80279C25.3807 4.59106 24.5646 4.34005 23.0599 4.27134ZM14.8568 21.5821C15.9571 22.0401 17.1822 22.1019 18.323 21.757C19.4638 21.412 20.4495 20.6817 21.1117 19.6908C21.7738 18.6999 22.0714 17.5098 21.9536 16.3238C21.8358 15.1378 21.3099 14.0295 20.4658 13.1882C19.9277 12.6504 19.277 12.2387 18.5606 11.9825C17.8442 11.7264 17.08 11.6322 16.3228 11.7069C15.5657 11.7816 14.8346 12.0232 14.182 12.4144C13.5295 12.8055 12.9718 13.3365 12.5491 13.9691C12.1264 14.6016 11.8492 15.3201 11.7375 16.0726C11.6258 16.8252 11.6823 17.5931 11.903 18.3212C12.1237 19.0493 12.5031 19.7194 13.0138 20.2832C13.5246 20.8471 14.154 21.2907 14.8568 21.5821ZM11.2208 11.2209C11.957 10.4847 12.831 9.90067 13.7929 9.50223C14.7548 9.1038 15.7858 8.89872 16.8269 8.89872C17.8681 8.89872 18.8991 9.1038 19.861 9.50223C20.8229 9.90067 21.6969 10.4847 22.4331 11.2209C23.1694 11.9571 23.7533 12.8311 24.1518 13.793C24.5502 14.7549 24.7553 15.7859 24.7553 16.8271C24.7553 17.8682 24.5502 18.8992 24.1518 19.8611C23.7533 20.823 23.1694 21.697 22.4331 22.4333C20.9463 23.9201 18.9297 24.7554 16.8269 24.7554C14.7242 24.7554 12.7076 23.9201 11.2208 22.4333C9.73391 20.9464 8.8986 18.9298 8.8986 16.8271C8.8986 14.7243 9.73391 12.7077 11.2208 11.2209ZM26.5137 10.0795C26.6961 9.90735 26.8422 9.7004 26.9432 9.47084C27.0442 9.24128 27.0981 8.99379 27.1018 8.74301C27.1055 8.49224 27.0588 8.24328 26.9645 8.01087C26.8702 7.77847 26.7302 7.56734 26.5529 7.39C26.3755 7.21265 26.1644 7.07269 25.932 6.97841C25.6996 6.88412 25.4506 6.83742 25.1999 6.84108C24.9491 6.84473 24.7016 6.89867 24.472 6.99969C24.2425 7.10071 24.0355 7.24677 23.8634 7.4292C23.5287 7.78402 23.3455 8.2553 23.3526 8.74301C23.3597 9.23073 23.5566 9.69647 23.9015 10.0414C24.2464 10.3863 24.7122 10.5832 25.1999 10.5903C25.6876 10.5974 26.1589 10.4142 26.5137 10.0795Z" fill="#F8F8F8"/>
</svg>
